<svg width="290" height="352" viewBox="0 0 290 352" fill="none" xmlns="http://www.w3.org/2000/svg">
<g filter="url(#filter0_d_959_4350)">
<g filter="url(#filter1_d_959_4350)">
<path d="M132.411 47.3483C130.05 50.2785 126.58 54.7734 124.645 57.3053C122.739 59.8373 118.87 65.1571 116.054 69.1115C113.237 73.0943 109.653 78.2719 108.116 80.6616C105.812 84.1892 105.414 85.1849 105.869 86.1237C106.182 86.778 108.202 89.6229 110.364 92.4678C112.526 95.3411 116.253 100.035 118.642 102.937C121.061 105.81 124.446 109.964 126.21 112.097C127.945 114.259 130.989 117.929 132.98 120.262C134.943 122.595 136.906 124.501 137.305 124.501C137.703 124.501 138.812 123.647 139.808 122.623C140.775 121.571 144.303 117.502 147.631 113.52C150.932 109.565 156.223 103.079 159.381 99.0963C162.539 95.1419 166.152 90.391 167.432 88.5419L169.736 85.1565C167.944 82.1409 165.867 79.0116 163.961 76.2805C162.055 73.5495 157.02 66.5796 152.781 60.8329C148.542 55.0863 143.478 48.4863 141.543 46.1819C139.609 43.8776 137.731 42 137.362 42C136.992 42 134.773 44.4181 132.411 47.3483Z" fill="white"/>
</g>
<g filter="url(#filter2_d_959_4350)">
<path d="M79.4099 82.7956C77.6745 84.9577 75.0572 88.2577 73.6633 90.1638C72.2408 92.0698 69.3675 96.3656 67.2623 99.694C65.1571 103.023 62.8812 106.778 62.17 108.058C61.4588 109.31 59.3821 113.349 57.5614 116.991C55.7407 120.632 53.5786 125.184 52.782 127.09C51.9854 128.968 50.3923 133.263 49.2544 136.592C48.088 139.92 46.5233 145.24 45.7552 148.426C44.9871 151.584 44.0767 155.994 43.7354 158.213C43.394 160.432 42.8535 163.476 42.5405 164.983C42.256 166.491 42 171.299 42 175.652C42 180.033 42.2276 185.011 42.5405 186.775C42.8535 188.51 43.394 191.867 43.7638 194.257C44.1621 196.647 44.9587 200.516 45.5561 202.905C46.1819 205.295 47.4906 209.449 48.4578 212.123C49.4251 214.825 51.5303 219.633 53.0949 222.791C54.6881 225.977 57.4191 230.785 59.1545 233.459C60.9183 236.162 63.9054 240.458 65.8399 242.989C67.7459 245.521 73.2365 251.496 78.0159 256.246C83.5065 261.737 89.566 267.029 94.4876 270.698C98.7549 273.885 104.075 277.697 106.294 279.119C108.513 280.57 112.296 282.988 114.658 284.524C117.047 286.032 120.859 288.251 123.164 289.474C125.468 290.698 127.602 291.58 127.915 291.409C128.285 291.238 128.512 284.809 128.512 273.97L128.541 256.815C98.7833 222.421 88.6557 210.672 86.8349 208.538L83.5349 204.641C83.5349 181.171 83.734 174.059 83.9616 173.66C84.2461 173.234 88.0867 177.131 94.7721 184.585C100.49 190.957 108.883 200.345 113.434 205.466C118.015 210.558 122.936 215.992 124.416 217.556C126.72 220.031 127.118 220.231 127.459 219.292C127.659 218.694 127.858 211.127 127.886 202.479L127.915 186.775C124.074 182.508 118.071 175.566 112.069 168.596C106.066 161.627 101.031 155.795 100.86 155.624C100.661 155.453 97.4178 151.698 93.6057 147.26C89.7936 142.822 85.953 138.356 85.0996 137.303L83.5349 135.454C83.5065 92.7526 83.3073 80.0361 83.0513 79.6093C82.7383 79.0973 81.6573 80.0076 79.4099 82.7956Z" fill="white"/>
</g>
<g filter="url(#filter3_d_959_4350)">
<path d="M189.393 79.8366C189.108 80.0642 188.881 84.8435 188.938 90.4194L189.023 100.547C173.632 118.555 164.443 129.337 158.697 136.108C152.95 142.879 147.573 149.251 146.748 150.275L145.212 152.153L145.269 188.197C148.142 185.039 150.646 182.195 152.723 179.833C154.771 177.501 158.555 173.205 161.086 170.36C163.618 167.487 167.402 163.191 169.507 160.801C171.612 158.44 176.506 152.864 180.403 148.426C184.3 143.988 187.771 140.347 188.113 140.347C188.596 140.347 188.795 149.28 188.938 172.636L189.108 204.925C182.594 212.578 175.88 220.344 170.019 227.115C164.159 233.886 157.274 241.794 154.742 244.668C152.182 247.541 148.768 251.524 147.09 253.515L144.074 257.1C144.074 284.154 144.302 292.376 144.586 292.859C144.956 293.514 145.155 293.542 145.44 293.002C145.639 292.603 148.711 290.555 152.296 288.421C155.852 286.316 162.025 282.39 165.98 279.688C169.962 277.014 176.306 272.32 180.119 269.276C183.931 266.26 190.417 260.371 194.542 256.246C198.667 252.121 203.702 246.687 205.722 244.127C207.742 241.595 210.9 237.328 212.692 234.625C214.513 231.923 217.415 227.001 219.122 223.673C220.857 220.344 223.076 215.536 224.072 213.004C225.067 210.472 226.262 207.087 226.746 205.494C227.229 203.929 227.998 201.056 228.453 199.15C228.936 197.244 227.713 203.332 230.302 189.079C232.862 174.798 230.785 169.137 230.302 164.841C229.818 160.574 229.022 155.111 228.538 152.75C228.026 150.361 227.229 146.975 226.746 145.24C226.262 143.504 225.21 140.119 224.413 137.758C223.616 135.368 222.08 131.272 220.999 128.654C219.918 126.037 217.472 120.803 215.565 116.99C213.659 113.178 211.184 108.57 210.018 106.749C208.88 104.928 207.002 101.998 205.865 100.263C204.755 98.5273 201.711 94.2316 199.094 90.7608C196.505 87.2617 193.376 83.2789 192.152 81.9133C190.929 80.5193 189.677 79.609 189.393 79.8366Z" fill="white"/>
</g>
</g>
<defs>
<filter id="filter0_d_959_4350" x="0" y="0" width="289.555" height="351.381" filterUnits="userSpaceOnUse" color-interpolation-filters="sRGB">
<feFlood flood-opacity="0" result="BackgroundImageFix"/>
<feColorMatrix in="SourceAlpha" type="matrix" values="0 0 0 0 0 0 0 0 0 0 0 0 0 0 0 0 0 0 127 0" result="hardAlpha"/>
<feOffset dx="8" dy="8"/>
<feGaussianBlur stdDeviation="25"/>
<feComposite in2="hardAlpha" operator="out"/>
<feColorMatrix type="matrix" values="0 0 0 0 0 0 0 0 0 0 0 0 0 0 0 0 0 0 0.8 0"/>
<feBlend mode="normal" in2="BackgroundImageFix" result="effect1_dropShadow_959_4350"/>
<feBlend mode="normal" in="SourceGraphic" in2="effect1_dropShadow_959_4350" result="shape"/>
</filter>
<filter id="filter1_d_959_4350" x="86.2031" y="22.5" width="103.031" height="121.501" filterUnits="userSpaceOnUse" color-interpolation-filters="sRGB">
<feFlood flood-opacity="0" result="BackgroundImageFix"/>
<feColorMatrix in="SourceAlpha" type="matrix" values="0 0 0 0 0 0 0 0 0 0 0 0 0 0 0 0 0 0 127 0" result="hardAlpha"/>
<feOffset/>
<feGaussianBlur stdDeviation="9.75"/>
<feComposite in2="hardAlpha" operator="out"/>
<feColorMatrix type="matrix" values="0 0 0 0 1 0 0 0 0 1 0 0 0 0 1 0 0 0 0.76 0"/>
<feBlend mode="normal" in2="BackgroundImageFix" result="effect1_dropShadow_959_4350"/>
<feBlend mode="normal" in="SourceGraphic" in2="effect1_dropShadow_959_4350" result="shape"/>
</filter>
<filter id="filter2_d_959_4350" x="22.5" y="59.9736" width="125.539" height="250.956" filterUnits="userSpaceOnUse" color-interpolation-filters="sRGB">
<feFlood flood-opacity="0" result="BackgroundImageFix"/>
<feColorMatrix in="SourceAlpha" type="matrix" values="0 0 0 0 0 0 0 0 0 0 0 0 0 0 0 0 0 0 127 0" result="hardAlpha"/>
<feOffset/>
<feGaussianBlur stdDeviation="9.75"/>
<feComposite in2="hardAlpha" operator="out"/>
<feColorMatrix type="matrix" values="0 0 0 0 1 0 0 0 0 1 0 0 0 0 1 0 0 0 0.76 0"/>
<feBlend mode="normal" in2="BackgroundImageFix" result="effect1_dropShadow_959_4350"/>
<feBlend mode="normal" in="SourceGraphic" in2="effect1_dropShadow_959_4350" result="shape"/>
</filter>
<filter id="filter3_d_959_4350" x="124.574" y="60.3018" width="126.48" height="252.579" filterUnits="userSpaceOnUse" color-interpolation-filters="sRGB">
<feFlood flood-opacity="0" result="BackgroundImageFix"/>
<feColorMatrix in="SourceAlpha" type="matrix" values="0 0 0 0 0 0 0 0 0 0 0 0 0 0 0 0 0 0 127 0" result="hardAlpha"/>
<feOffset/>
<feGaussianBlur stdDeviation="9.75"/>
<feComposite in2="hardAlpha" operator="out"/>
<feColorMatrix type="matrix" values="0 0 0 0 1 0 0 0 0 1 0 0 0 0 1 0 0 0 0.76 0"/>
<feBlend mode="normal" in2="BackgroundImageFix" result="effect1_dropShadow_959_4350"/>
<feBlend mode="normal" in="SourceGraphic" in2="effect1_dropShadow_959_4350" result="shape"/>
</filter>
</defs>
</svg>
