<svg width="78" height="79" viewBox="0 0 78 79" fill="none" xmlns="http://www.w3.org/2000/svg">
<g clip-path="url(#clip0_959_4015)">
<path d="M77.4954 59.0628L72.985 61.6917C72.9201 61.6917 72.8876 61.7891 72.8876 61.854V67.0794C72.8876 67.2092 72.7578 67.3066 72.628 67.2416L68.0203 64.5803L63.153 61.7566L58.2856 58.933L53.6779 56.2716C53.5481 56.2067 53.4183 56.2716 53.4183 56.4339V72.8889C53.4183 72.9539 53.3858 73.0188 53.3209 73.0512L48.5509 75.81L43.9432 78.4713C43.8134 78.5362 43.6836 78.4713 43.6836 78.309V44.977C43.6836 44.9121 43.716 44.8472 43.7809 44.8148L48.5509 42.056L53.4183 39.2324L58.2856 36.4087L63.153 33.5851L68.0203 30.7614L72.628 28.1001C72.7578 28.0352 72.8876 28.1001 72.8876 28.2623V39.1026C72.8876 39.1675 72.8552 39.2324 72.7903 39.2648L68.0203 42.0236L63.153 44.8472L58.5452 47.5086C58.4154 47.5735 58.4154 47.7358 58.5452 47.8007L63.153 50.462L68.0203 53.2857L72.8876 56.1093L77.4954 58.7707C77.6252 58.8356 77.6252 58.9979 77.4954 59.0628Z" fill="#F8F8F8"/>
<path d="M33.9497 44.9769V78.3089C33.9497 78.4388 33.8199 78.5037 33.6901 78.4388L29.0824 75.7774L24.2799 73.0187C24.215 73.0187 24.1826 72.9213 24.1826 72.8888V56.4013C24.1826 56.2715 24.0528 56.2066 23.923 56.2715L19.3152 58.9329L14.4479 61.7565L9.58055 64.5802L4.9728 67.2415C4.87545 67.3065 4.71321 67.2416 4.71321 67.1117V61.8864C4.71321 61.8214 4.71321 61.7565 4.61586 61.7565L0.0730101 59.1276C-0.0243367 59.0627 -0.0243367 58.9004 0.0730101 58.8355L4.68076 56.1742L9.5481 53.3505L14.4154 50.5269L19.0232 47.8655C19.1205 47.8006 19.1205 47.6383 19.0232 47.5734L14.4154 44.912L9.5481 42.0884L4.77811 39.3296C4.71321 39.3296 4.68076 39.2323 4.68076 39.1998V28.3272C4.68076 28.1973 4.81055 28.1324 4.94035 28.1973L9.5481 30.8587L14.4154 33.6824L19.2828 36.506L24.1501 39.3296L29.0175 42.1533L33.7875 44.912C33.8524 44.912 33.8848 45.0094 33.8848 45.0419L33.9497 44.9769Z" fill="#F8F8F8"/>
<path d="M67.7627 19.4344C67.86 19.4993 67.86 19.6616 67.7627 19.7265L58.2876 25.2115L53.4203 28.0351L48.5529 30.8588L43.6856 33.6824L38.9156 36.4412H38.7533L33.9509 33.6824L29.0836 30.8588L24.2162 28.0351L19.3489 25.2115L9.87379 19.7265C9.77644 19.6616 9.77644 19.4993 9.87379 19.4344L14.4815 16.773L19.2515 14.0143H19.4138L24.1838 16.773L29.0511 19.5966L33.6589 22.258C33.7562 22.3229 33.9184 22.258 33.9184 22.0957V0.188129C33.9184 0.0583065 34.0482 -0.0390606 34.178 0.0258508L38.7209 2.65476H38.8831L43.3935 0.0258508C43.4909 -0.0390606 43.6531 0.0258508 43.6531 0.188129V22.0957C43.6531 22.2256 43.7829 22.3229 43.9127 22.258L48.5205 19.5966L53.3878 16.773L58.1903 14.0143H58.3525L63.1225 16.773L67.7302 19.4344H67.7627Z" fill="#F8F8F8"/>
</g>
<defs>
<clipPath id="clip0_959_4015">
<rect width="77.5919" height="78.4941" fill="white"/>
</clipPath>
</defs>
</svg>
