<svg width="70" height="70" viewBox="0 0 70 70" fill="none" xmlns="http://www.w3.org/2000/svg">
<g clip-path="url(#clip0_959_4390)">
<path d="M56.5589 18.2491C57.1129 18.1676 57.4225 18.2817 57.895 18.4935C58.7586 18.852 61.4308 20.4488 62.0826 21.0843C64.3801 23.284 63.8261 25.8259 64.1194 28.6774C63.7446 36.3846 64.5919 44.5154 64.1194 52.1737C63.9564 54.7481 63.1906 56.6383 61.1701 58.2514C55.956 61.1681 50.7418 64.6387 45.4462 67.3599C43.0835 68.5657 41.5845 68.6471 41.226 65.5512C41.9755 57.2575 39.3848 47.3506 43.3117 39.7738C46.5379 33.5657 50.8396 26.1029 54.6036 20.2044C55.0598 19.4711 55.6138 18.3794 56.5426 18.2328L56.5589 18.2491Z" fill="white"/>
<path d="M34.8873 6.20774C37.2011 5.91444 40.0688 7.38092 41.8938 8.74964C43.2625 9.77617 42.8389 10.8353 42.1708 12.1388C40.6717 15.0718 38.7001 18.1351 37.0544 21.0192C34.1377 26.1193 30.3412 34.299 25.4855 37.4438C20.4017 40.7515 14.5358 43.3586 9.38681 46.6337C6.6005 48.0024 5.86726 46.3893 5.72061 43.88C5.39473 38.177 5.99761 32.1481 5.72061 26.4126C5.94873 23.2026 7.48039 21.5569 10.0386 19.8949C17.208 15.251 25.3715 11.5359 32.6224 6.94098C33.323 6.64768 34.154 6.28921 34.8873 6.20774Z" fill="white"/>
<path d="M60.7951 16.7011C60.5344 16.8803 59.1168 15.8701 58.7258 15.7072C53.8212 13.54 52.9087 18.5912 50.7905 21.6871C47.939 20.2532 45.1852 18.5586 42.4478 16.9292C44.0284 13.7518 47.8412 10.1345 43.7839 7.02233C43.5069 6.8105 42.0568 6.10985 42.0079 6.01209C41.6168 5.34402 44.2728 3.40501 44.8431 3.09542C52.7132 -1.30402 61.8216 4.69225 61.5609 13.4911C61.5609 13.98 61.0884 16.5056 60.7951 16.7174V16.7011Z" fill="white"/>
<path d="M38.6654 42.4788V53.3308C38.4047 54.4714 35.8628 55.4653 34.82 55.6609C30.1761 56.557 25.4671 54.618 22.6808 50.8704C21.084 48.7195 19.5034 45.1511 21.084 42.6744L29.9154 37.5254L38.6654 42.4788Z" fill="white"/>
<path d="M31.4813 35.6521C31.3672 35.4566 31.4813 35.1633 31.579 34.9677C32.5404 32.7028 34.5772 30.3239 35.6037 28.0101L35.9296 27.7168L44.3863 32.6214L44.2885 33.2242C43.6205 34.0064 40.3616 40.3937 39.938 40.4752L31.4813 35.6521Z" fill="white"/>
<path d="M37.0525 26.0222C36.9547 25.8593 37.0362 25.6149 37.1177 25.4519L41.0446 18.6572L41.5497 18.755C43.6679 20.14 45.9654 21.248 48.1326 22.5515C48.491 22.7797 49.6642 23.3663 49.6968 23.7084C49.7457 24.2461 46.1447 29.998 45.5255 30.8453L37.0688 26.0222H37.0525Z" fill="white"/>
</g>
<defs>
<clipPath id="clip0_959_4390">
<rect width="70" height="70" fill="white"/>
</clipPath>
</defs>
</svg>
