<svg width="36" height="36" viewBox="0 0 36 36" fill="none" xmlns="http://www.w3.org/2000/svg">
<path d="M17.9422 8.69581e-05C27.2851 -0.0283278 36.5758 6.90961 35.9068 16.9021C35.5841 21.7326 31.2804 25.6397 26.5212 25.9333C23.8735 26.0943 19.0858 24.9956 19.4843 29.3383C19.6409 31.0527 21.6576 31.5357 20.7892 33.9131C19.9209 36.2905 17.1024 35.9921 15.0051 35.6559C7.84014 34.5051 1.89942 28.8174 0.400001 21.7469C-1.97249 10.5562 6.5068 0.0332375 17.9422 8.69581e-05ZM16.0632 11.7827C18.5923 14.3069 22.3883 10.4046 19.8639 7.94675C17.3396 5.48887 13.5721 9.29172 16.0632 11.7827ZM7.98249 17.1626C10.5116 19.6868 14.3076 15.7845 11.7832 13.3266C9.2589 10.8687 5.48663 14.6716 7.98249 17.1626ZM24.1439 17.1626C26.673 19.6868 30.469 15.7845 27.9447 13.3266C25.4346 10.8877 21.6481 14.6716 24.1439 17.1626Z" fill="#F8F8F8"/>
</svg>
