<svg width="70" height="70" viewBox="0 0 70 70" fill="none" xmlns="http://www.w3.org/2000/svg">
<g clip-path="url(#clip0_373_1271)">
<path d="M56.5589 18.2496C57.1129 18.1681 57.4225 18.2822 57.895 18.494C58.7586 18.8525 61.4308 20.4493 62.0826 21.0848C64.3801 23.2845 63.8261 25.8264 64.1194 28.6779C63.7446 36.385 64.5919 44.5159 64.1194 52.1741C63.9564 54.7486 63.1906 56.6388 61.1701 58.2519C55.956 61.1686 50.7418 64.6392 45.4462 67.3604C43.0835 68.5661 41.5845 68.6476 41.226 65.5517C41.9755 57.2579 39.3848 47.3511 43.3117 39.7742C46.5379 33.5661 50.8396 26.1034 54.6036 20.2049C55.0598 19.4716 55.6138 18.3799 56.5426 18.2333L56.5589 18.2496Z" fill="white"/>
<path d="M34.8873 6.20774C37.2011 5.91444 40.0688 7.38092 41.8938 8.74964C43.2625 9.77617 42.8389 10.8353 42.1708 12.1388C40.6717 15.0718 38.7001 18.1351 37.0544 21.0192C34.1377 26.1193 30.3412 34.299 25.4855 37.4438C20.4017 40.7515 14.5358 43.3586 9.38681 46.6337C6.6005 48.0024 5.86726 46.3893 5.72061 43.88C5.39473 38.177 5.99761 32.1481 5.72061 26.4126C5.94873 23.2026 7.48039 21.5569 10.0386 19.8949C17.208 15.251 25.3715 11.5359 32.6224 6.94098C33.323 6.64768 34.154 6.28921 34.8873 6.20774Z" fill="white"/>
<path d="M60.7951 16.7016C60.5344 16.8808 59.1168 15.8706 58.7257 15.7076C53.8212 13.5405 52.9087 18.5917 50.7905 21.6876C47.939 20.2537 45.1852 18.5591 42.4478 16.9297C44.0284 13.7523 47.8412 10.135 43.7839 7.02282C43.5069 6.81099 42.0568 6.11034 42.0079 6.01257C41.6168 5.34451 44.2728 3.4055 44.8431 3.09591C52.7132 -1.30353 61.8216 4.69274 61.5609 13.4916C61.5609 13.9805 61.0884 16.5061 60.7951 16.7179V16.7016Z" fill="white"/>
<path d="M38.6654 42.4788V53.3308C38.4047 54.4714 35.8628 55.4653 34.82 55.6609C30.1761 56.557 25.4671 54.618 22.6808 50.8704C21.084 48.7195 19.5034 45.1511 21.084 42.6744L29.9154 37.5254L38.6654 42.4788Z" fill="white"/>
<path d="M31.4813 35.6521C31.3672 35.4566 31.4813 35.1633 31.579 34.9677C32.5404 32.7028 34.5772 30.3239 35.6037 28.0101L35.9296 27.7168L44.3863 32.6214L44.2885 33.2242C43.6205 34.0064 40.3616 40.3937 39.938 40.4752L31.4813 35.6521Z" fill="white"/>
<path d="M37.0525 26.0222C36.9547 25.8593 37.0362 25.6149 37.1177 25.4519L41.0446 18.6572L41.5497 18.755C43.6679 20.14 45.9654 21.248 48.1326 22.5515C48.491 22.7797 49.6642 23.3663 49.6968 23.7084C49.7457 24.2461 46.1447 29.998 45.5255 30.8453L37.0688 26.0222H37.0525Z" fill="white"/>
</g>
<defs>
<clipPath id="clip0_373_1271">
<rect width="70" height="70" fill="white"/>
</clipPath>
</defs>
</svg>
