<svg width="63" height="63" viewBox="0 0 63 63" fill="none" xmlns="http://www.w3.org/2000/svg">
<path d="M31.2236 0C48.4676 0.000183483 62.4463 13.9796 62.4463 31.2236C62.4461 48.4675 48.4675 62.4461 31.2236 62.4463C13.9796 62.4463 0.000183494 48.4676 0 31.2236C0 13.9795 13.9795 0 31.2236 0ZM38.6826 14.6133C35.8549 14.4528 27.381 14.4528 24.5537 14.6133C21.8181 14.7432 19.3877 15.3695 17.3779 17.3721C15.3683 19.3746 14.7499 21.8059 14.6123 24.5498C14.4519 27.3782 14.4518 35.8537 14.6123 38.6816C14.7422 41.4257 15.3682 43.8568 17.3779 45.8594C19.3877 47.8618 21.8104 48.4884 24.5537 48.626C27.3809 48.7864 35.8549 48.7864 38.6826 48.626C41.4258 48.496 43.8564 47.8693 45.8584 45.8594C47.8603 43.8568 48.4875 41.4257 48.625 38.6816C48.7855 35.8535 48.7855 27.3846 48.625 24.5566C48.4951 21.8129 47.868 19.3823 45.8584 17.3799C43.8563 15.3775 41.4259 14.7509 38.6826 14.6133ZM31.6221 17.5791C34.1133 17.5791 39.4701 17.38 41.7168 18.2666C43.2144 18.8627 44.3679 20.0169 44.9717 21.5225C45.8657 23.7772 45.6602 29.1273 45.6602 31.6191C45.6602 34.1109 45.8656 39.4687 44.9717 41.7158C44.3757 43.2141 43.2221 44.3688 41.7168 44.9727C39.4623 45.8668 34.1132 45.6602 31.6221 45.6602C29.1309 45.6602 23.7739 45.8593 21.5273 44.9727C20.0297 44.3765 18.8761 43.2215 18.2725 41.7158C17.3785 39.4609 17.585 34.1108 17.585 31.6191C17.5849 29.1273 17.3861 23.7695 18.2725 21.5225C18.8685 20.0246 20.0222 18.8704 21.5273 18.2666C23.7816 17.3724 29.1309 17.5791 31.6221 17.5791ZM31.6221 22.8369C26.7622 22.837 22.8419 26.7582 22.8418 31.6191C22.8418 36.4802 26.7621 40.4013 31.6221 40.4014C36.4821 40.4014 40.4023 36.4802 40.4023 31.6191C40.4022 26.7581 36.482 22.8369 31.6221 22.8369ZM31.6221 25.9102C34.7704 25.9102 37.3299 28.4702 37.3301 31.6191C37.3301 34.7682 34.7628 37.3291 31.6221 37.3291C28.4815 37.329 25.9141 34.7682 25.9141 31.6191C25.9142 28.4703 28.474 25.9102 31.6221 25.9102ZM40.7617 20.4297C39.6308 20.4297 38.7139 21.3473 38.7139 22.4785C38.7141 23.6095 39.6233 24.5264 40.7617 24.5264C41.8925 24.5263 42.8093 23.6171 42.8096 22.4785C42.8096 21.3474 41.8927 20.4298 40.7617 20.4297Z" fill="white"/>
</svg>
