<svg width="35" height="26" viewBox="0 0 35 26" fill="none" xmlns="http://www.w3.org/2000/svg">
<path d="M34.9992 22.6503H0.00390625V1.4422C0.00390625 0.79541 1.30491 -0.118528 1.97427 0.0127038H33.1042C33.75 -0.0904072 34.9992 0.818844 34.9992 1.4422V22.6503ZM3.91165 3.79032C3.61468 3.89343 3.70895 4.48397 3.91165 4.48397H15.913C16.1581 4.48397 16.1581 3.79032 15.913 3.79032H3.91165ZM30.6625 9.56453L27.179 3.79032L23.62 9.56453H30.6672H30.6625ZM3.81737 9.23645C3.90222 9.32082 4.1002 9.3255 4.22276 9.33488C7.86181 9.63952 11.9251 9.09585 15.6113 9.33488C16.3137 9.36768 16.3089 8.52405 15.6113 8.55686C11.944 8.80995 7.83824 8.23346 4.22276 8.55686C3.80323 8.59435 3.47798 8.89431 3.81737 9.23645ZM26.717 10.4878H23.1534V19.2663H26.717V10.4878ZM31.049 10.4878H27.5655V19.2663H31.049V10.4878ZM3.99178 14.1061H15.9177C16.1628 14.1061 16.1628 13.4124 15.9177 13.4124H3.91165C3.69953 13.4124 3.60996 14.0452 3.98707 14.1061H3.99178ZM3.9305 18.2024C3.52983 18.3196 3.73252 18.9758 4.14262 18.9617C6.20255 18.7836 8.63959 19.1867 10.6524 18.9617C11.2652 18.8914 11.2275 18.2493 10.7325 18.1884L3.9305 18.2071V18.2024Z" fill="#F8F8F8"/>
<path d="M35 18.6438V21.9949C35 22.6089 33.8262 23.5088 33.1852 23.4197H1.89495C1.2303 23.5416 0 22.6276 0 21.9949V18.6438H34.9953H35Z" fill="#F8F8F8"/>
<path d="M16.0052 19.4726C16.8961 19.5382 17.9992 19.3507 18.8618 19.4585C18.9466 19.4679 19.0362 19.4585 19.0928 19.5382L20.8322 24.8953L27.4551 24.9328C27.8086 25.0218 27.9217 25.4764 27.554 25.6452C20.8699 25.7389 14.1433 25.7389 7.45911 25.6452C7.09615 25.4764 7.20457 25.0265 7.5581 24.9328L14.181 24.8953L16.0099 19.4773L16.0052 19.4726Z" fill="#F8F8F8"/>
</svg>
