<svg width="75" height="80" viewBox="0 0 75 80" fill="none" xmlns="http://www.w3.org/2000/svg">
<g clip-path="url(#clip0_959_4023)">
<path d="M74.8839 21.623V31.244L70.6998 33.673L66.5633 36.0544L62.3792 38.4835L58.2427 40.8649L54.0587 43.2939L49.9221 45.6753V74.5857L45.7381 76.9671L41.6016 79.3962V40.9125L45.7381 38.4835L49.9221 36.0544L54.0587 33.673L58.2427 31.2916L62.3792 28.8625L66.5633 26.4811L70.6998 24.0521L74.8839 21.623Z" fill="#F8F8F8"/>
<path d="M66.563 60.1546V64.9651L62.379 67.3465L58.2425 69.7755L54.0584 72.157L49.9219 74.586V64.9651L54.0584 62.536L58.2425 60.1546L62.379 57.7256L66.563 60.1546Z" fill="#F8F8F8"/>
<path d="M33.2854 69.7753V79.3962L29.1014 76.9672L24.9648 74.5858V64.9648L29.1014 67.3463L33.2854 69.7753Z" fill="#F8F8F8"/>
<path d="M74.8831 31.2441V50.5336L70.699 52.915L66.5625 50.5336V36.0546L70.699 33.6732L74.8831 31.2441Z" fill="#F8F8F8"/>
<path d="M66.563 45.6748V50.5329L62.3789 48.1038L66.563 45.6748Z" fill="#F8F8F8"/>
<path d="M24.961 64.9652V74.5861L20.8245 72.157L16.6404 69.7756L12.5039 67.3466L16.6404 64.9652L20.8245 62.5361L24.961 64.9652Z" fill="#F8F8F8"/>
<path d="M70.7007 14.4314L66.5642 16.8128L62.3801 19.2418L58.2436 21.6232L54.0595 24.0523L49.923 26.4337L45.7389 28.8627L41.6024 31.2442L37.4184 33.6732L33.2818 31.2918L29.1453 28.8627L24.9613 26.4337L20.7772 24.0523L16.6407 21.6709L12.5042 19.2418L8.32011 16.8128L4.18359 14.4314L8.32011 12.05L12.5042 9.62091L16.6407 7.19187L20.8247 4.81046L24.9613 2.42904L29.1453 0L33.2818 2.38141V12.05L29.0978 9.62091L24.9613 12.05L20.8247 14.4314L24.9613 16.8128L29.0978 19.2418L33.2818 21.6709L37.4184 24.0523L41.6024 21.6709L45.7389 19.2418L49.923 16.8128L54.0595 14.4314L49.923 12.0023L45.7389 9.62091L41.6024 12.0023V2.42904L45.7389 0L49.923 2.42904L54.0595 4.81046L58.2436 7.19187L62.3801 9.62091L66.5642 12.0023L70.7007 14.4314Z" fill="#F8F8F8"/>
<path d="M33.2823 40.9125V69.7752L29.0982 67.3462L24.9617 64.9648V45.6753L20.8252 43.2939L16.6412 40.9125L12.5046 38.4835L8.32058 36.0544L4.18406 33.673L0 31.244V21.623L4.18406 24.0521L8.32058 26.4811L12.5046 28.8625L16.6412 31.2916L20.8252 33.673L24.9617 36.102L29.0982 38.4835L33.2823 40.9125Z" fill="#F8F8F8"/>
<path d="M8.32058 36.0546V45.6755L4.18406 43.2941L0 40.8651V31.2441L4.18406 33.6732L8.32058 36.0546Z" fill="#F8F8F8"/>
<path d="M12.5044 48.1038L8.32031 50.5329V45.6748L12.5044 48.1038Z" fill="#F8F8F8"/>
<path d="M16.6404 55.3447V60.1552L12.5039 57.7261L16.6404 55.3447Z" fill="#F8F8F8"/>
<path d="M20.825 62.536L16.6409 64.9651L12.5044 67.3465L8.32031 64.9651V60.1546L12.5044 57.7256L16.6409 60.1546L20.825 62.536Z" fill="#F8F8F8"/>
</g>
<defs>
<clipPath id="clip0_959_4023">
<rect width="74.8852" height="79.3964" fill="white"/>
</clipPath>
</defs>
</svg>
