<svg width="70" height="81" viewBox="0 0 70 81" fill="none" xmlns="http://www.w3.org/2000/svg">
<g clip-path="url(#clip0_959_4049)">
<path d="M56.0739 24.667L53.4125 26.1953L50.7511 27.7542L48.0591 29.2825L45.3977 30.8414L42.7057 32.3698L40.0443 33.9287L37.3523 35.457L34.6909 37.0159L31.9989 35.4876L29.3375 33.9287L26.6455 32.3698L23.9841 30.8414L21.2921 29.3131L18.6307 27.7542L15.9387 26.1953L13.2773 24.667L15.9387 23.1386L18.6307 21.5797L21.2921 20.0208L23.9841 18.4925L26.6455 16.9642L29.3375 15.4053L31.9989 16.9336V23.1386L29.3375 21.5797L26.6455 23.1386L23.9841 24.667L26.6455 26.1953L29.3375 27.7542L31.9989 29.3131L34.6909 30.8414L37.3523 29.3131L40.0443 27.7542L42.7057 26.1953L45.3977 24.667L42.7057 23.1081L40.0443 21.5797L37.3523 23.1081V16.9642L40.0443 15.4053L42.7057 16.9642L45.3977 18.4925L48.0591 20.0208L50.7511 21.5797L53.4125 23.1081L56.0739 24.667Z" fill="#F8F8F8"/>
<path d="M66.7798 18.4928L64.1184 16.9645L61.457 15.4362L58.7956 13.8773L56.1036 12.3184L53.4422 10.79L50.7808 9.26169L48.0888 7.7028L45.4274 6.17446L42.7354 4.61556L40.074 3.08723L37.382 1.52833L34.7206 0L32.0592 1.52833L29.3978 3.08723L26.7058 4.64613L24.0444 6.17446L21.383 7.7028L18.7216 9.26169L16.0296 10.8206L13.3682 12.3489L10.6762 13.9078L8.0148 15.4362L5.3534 16.9951L2.69199 18.5234L0 20.0823V60.2163L2.69199 61.7752L5.3534 63.3035L8.0148 64.8624L10.6762 66.3908L13.3682 67.9497L16.0296 69.478L18.691 71.0063L21.383 72.5652L24.0444 74.1241L26.7058 75.6525L29.3978 77.2114L32.0592 78.7397L34.7512 80.2986L37.4126 78.7703L40.1046 77.2114L42.766 75.6525L45.4274 74.1241L48.0888 72.5958L50.7502 71.0369L53.4422 69.478L56.1342 67.9497L58.7956 66.3908L61.457 64.8624L64.1184 63.3035L66.7798 61.7752L69.4718 60.2163V20.0823L66.7798 18.5234V18.4928ZM64.1184 57.0679L61.457 58.6268L58.7956 60.1552L56.1036 61.7141L53.4422 63.2424L50.7808 64.7707L48.0888 66.3296L45.4274 67.8885L42.766 69.4169L40.1046 70.9758L37.4126 72.5041L34.7512 74.063L32.0898 72.5347L29.4284 70.9758L26.7364 69.4169L24.075 67.8885L21.4136 66.3602L18.7522 64.8013L16.0602 63.2424L13.3988 61.7141L10.7068 60.1552L8.04539 58.6268L5.38399 57.0679V23.1084L8.04539 21.5801L10.7068 20.0212L13.3682 18.4928L16.0602 16.9339L18.7216 15.4056L21.4136 13.8467L24.075 12.2878L26.7364 10.7595L29.3978 9.23113L32.0898 7.67223L34.7512 6.1439L37.4126 7.67223L40.1046 9.23113L42.766 10.7595L45.4274 12.3184L48.0888 13.8467L50.7502 15.4056L53.4422 16.9339L56.1036 18.4928L58.7956 20.0517L61.457 21.5801L64.149 23.1084V57.0679H64.1184Z" fill="#F8F8F8"/>
<path d="M31.9956 41.6617V66.329L29.3342 64.8007L26.6422 63.2418L23.9808 61.7134L21.2888 60.1545L18.6274 58.6262L15.9354 57.0673V54.0106L18.6274 52.4517L21.2888 50.8928V54.0106L23.9808 55.539L26.6422 57.0979V44.7184L23.9808 43.1901L21.2888 41.6617L18.6274 40.1028L15.9354 38.5439V44.7184L18.6274 46.2773L15.9354 47.8056L13.274 49.3645L10.582 47.8056V29.2822L13.274 30.8411L15.9354 32.4L18.6274 33.9284L21.2888 35.4873L23.9808 37.0156L26.6422 38.5745L29.3342 40.1028L31.9956 41.6617Z" fill="#F8F8F8"/>
<path d="M58.7652 29.2822V47.8056L56.0732 49.3645L53.4118 47.8056L50.7504 46.2773L53.4118 44.7184V38.5439L50.7504 40.1028L48.0584 41.6312L45.397 43.1901L42.705 44.7184V57.0673L45.397 55.539L48.0584 53.9801V50.8928L50.7198 52.4517L53.4118 53.9801V57.0673L50.7504 58.6262L48.0584 60.1851L45.397 61.7134L42.705 63.2418L40.0436 64.8007L37.3516 66.3596V41.6617L40.0436 40.1028L42.705 38.5439L45.397 37.0156L48.0584 35.4873L50.7504 33.9284L53.4118 32.4L56.1038 30.8411L58.7652 29.2822Z" fill="#F8F8F8"/>
</g>
<defs>
<clipPath id="clip0_959_4049">
<rect width="69.4718" height="80.2986" fill="white"/>
</clipPath>
</defs>
</svg>
