<svg width="41" height="101" viewBox="0 0 41 101" fill="none" xmlns="http://www.w3.org/2000/svg">
<path d="M28.897 10.1084C27.5166 13.5625 24.1575 16.0034 20.2233 16.0034C16.2891 16.0034 12.907 13.5625 11.5266 10.1084C4.71648 13.3783 0 20.3094 0 28.3459C0 31.3855 0.690215 34.2408 1.88659 36.8199C1.97862 37.0962 2.13966 37.3725 2.27771 37.6488C2.32372 37.787 2.41576 37.9252 2.48478 38.0864C8.09853 48.8861 15.6449 53.5606 20.2233 57.7055C23.2373 54.6889 27.3325 49.8993 27.9307 49.3006C22.455 44.3728 16.128 39.3989 12.6079 32.7671C11.8717 31.4776 11.4346 29.9808 11.4346 28.3689C11.4346 23.5332 15.3458 19.6186 20.2233 19.6186C25.1008 19.6186 28.966 23.5332 28.966 28.3689C28.966 32.1684 26.5273 35.4382 23.1222 36.6357C25.699 40.2049 28.805 43.6589 32.026 46.6294C34.2347 44.0504 36.3514 41.172 37.9158 38.0864C37.9619 37.9482 38.0539 37.81 38.1229 37.6488C38.2609 37.3725 38.445 37.0732 38.56 36.7968C39.7334 34.2178 40.4236 31.3855 40.4236 28.3459C40.4236 20.3094 35.7072 13.3783 28.897 10.1084Z" fill="#FFD25F"/>
<path d="M20.2198 13.2636C23.8793 13.2636 26.8459 10.2945 26.8459 6.63182C26.8459 2.96917 23.8793 0 20.2198 0C16.5603 0 13.5938 2.96917 13.5938 6.63182C13.5938 10.2945 16.5603 13.2636 20.2198 13.2636Z" fill="#FFD25F"/>
<path d="M0 71.8449C0 68.8054 0.690227 65.973 1.86359 63.394C1.97863 63.1176 2.13967 62.8183 2.30072 62.542C2.34673 62.4038 2.43877 62.2656 2.50779 62.1045C4.07228 59.0418 6.18894 56.1404 8.39762 53.5614C11.5956 56.5319 14.7246 59.986 17.3014 63.5552C13.8963 64.7526 11.4576 68.0224 11.4576 71.8219C11.4576 76.6576 15.3688 80.5722 20.2003 80.5722C25.0318 80.5722 28.989 76.6576 28.989 71.8219C28.989 70.187 28.5519 68.6902 27.8157 67.4237C24.2956 60.7919 17.9686 55.818 12.4929 50.8902C13.0911 50.2915 17.1864 45.5019 20.2003 42.4854C24.7557 46.6302 32.3251 51.3047 37.9388 62.1045C37.9849 62.2426 38.0769 62.3808 38.1459 62.542C38.284 62.8183 38.468 63.0946 38.537 63.371C39.7334 65.95 40.4236 68.8054 40.4236 71.8449C40.4236 79.8814 35.7072 86.8126 28.897 90.0824C27.5166 86.6283 24.1575 84.1875 20.2003 84.1875C16.2431 84.1875 12.907 86.6283 11.5266 90.0824C4.71648 86.8126 0 79.8814 0 71.8449Z" fill="#FFD25F"/>
<path d="M20.2198 100.192C23.8793 100.192 26.8459 97.2232 26.8459 93.5605C26.8459 89.8979 23.8793 86.9287 20.2198 86.9287C16.5603 86.9287 13.5938 89.8979 13.5938 93.5605C13.5938 97.2232 16.5603 100.192 20.2198 100.192Z" fill="#FFD25F"/>
</svg>
