<svg width="70" height="80" viewBox="0 0 70 80" fill="none" xmlns="http://www.w3.org/2000/svg">
<g clip-path="url(#clip0_959_4058)">
<path d="M69.4733 24.2275V31.6917C69.4733 32.1307 69.2572 32.482 68.9113 32.7015L67.7441 33.404L60.784 37.4873L59.0547 38.4972L55.5963 40.5169L48.6361 44.6002C47.858 45.0393 47.858 46.1809 48.6361 46.6199L50.3654 47.6298L57.3255 51.7131L59.0547 52.7229C59.8329 53.162 60.784 52.6351 60.784 51.7131V42.1854C60.784 41.7463 61.0001 41.395 61.346 41.1755L62.5132 40.473L67.7441 37.3995C68.5223 36.9605 69.4733 37.5313 69.4733 38.4094V60.1432C69.4733 60.5822 69.2572 60.9335 68.9113 61.153L67.7441 61.8555L60.784 65.9388L59.0547 66.9487L57.3255 67.9585L55.5963 68.9684L50.3654 72.0419C49.5872 72.4809 48.6361 71.9101 48.6361 71.032V63.524C48.6361 63.0849 48.8523 62.7337 49.1981 62.5141L50.3654 61.8116L57.3255 57.7283C58.1037 57.2892 58.1037 56.1477 57.3255 55.7086L55.5963 54.6987L48.6361 50.6154L46.9069 49.6056C46.1287 49.1665 45.1777 49.6934 45.1777 50.6154V74.4128C45.1777 74.8519 44.9615 75.2031 44.6157 75.4227L43.4484 76.0813L38.2175 79.1547C37.4394 79.5938 36.4883 79.023 36.4883 78.1449V42.1414C36.4883 41.7024 36.7044 41.3511 37.0503 41.1316L38.2175 40.4291L45.1777 36.3458L46.9069 35.3359L48.6361 34.3261L50.3654 33.3162L57.3255 29.2329L59.0547 28.223L60.784 27.2132L62.5132 26.2033L67.7441 23.1299C68.5223 22.6908 69.4733 23.2616 69.4733 24.1397V24.2275Z" fill="#F8F8F8"/>
<path d="M32.9851 42.2293V78.2327C32.9851 79.1548 32.034 79.6817 31.2558 79.2426L26.0249 76.1691L24.8577 75.5105C24.5118 75.291 24.2957 74.8958 24.2957 74.5007V50.7033C24.2957 49.7813 23.3446 49.2544 22.5665 49.6934L20.8372 50.7033L13.8771 54.7866L12.1478 55.7965C11.3697 56.2355 11.3697 57.3771 12.1478 57.8162L19.108 61.8995L20.2752 62.5581C20.6211 62.7776 20.8372 63.1728 20.8372 63.5679V71.076C20.8372 71.998 19.8861 72.5249 19.108 72.0858L13.8771 69.0124L12.1478 68.0025L10.4186 66.9927L8.68938 65.9828L1.72923 61.8995L0.562 61.197C0.216154 60.9775 0 60.5823 0 60.1871V38.4534C0 37.5313 0.951076 37.0044 1.72923 37.4435L6.96015 40.517L8.12738 41.2195C8.47323 41.439 8.68938 41.8342 8.68938 42.2293V51.7571C8.68938 52.6791 9.64046 53.206 10.4186 52.7669L12.1478 51.7571L19.108 47.6737L20.8372 46.6639C21.6154 46.1809 21.6154 45.0833 20.8372 44.6442L13.8771 40.5609L10.4186 38.5412L8.68938 37.5313L1.72923 33.448L0.562 32.7455C0.216154 32.526 0 32.1308 0 31.7356V24.2715C0 23.3495 0.951076 22.8226 1.72923 23.2617L6.96015 26.3351L8.68938 27.345L10.4186 28.3548L12.1478 29.3647L19.108 33.448L20.8372 34.4578L22.5665 35.4677L24.2957 36.4776L31.2558 40.5609L32.4231 41.2634C32.7689 41.4829 32.9851 41.8781 32.9851 42.2732V42.2293Z" fill="#F8F8F8"/>
<path d="M66.0135 18.12C66.7917 18.5591 66.7917 19.7007 66.0135 20.1397L60.7826 23.2132L59.0534 24.223L57.3241 25.2329L55.5949 26.2427L48.6347 30.3261L46.9055 31.3359L45.1763 32.3458L43.4471 33.3556L36.4869 37.4389L35.3197 38.1414C34.9738 38.361 34.5415 38.361 34.1524 38.1414L32.9852 37.4828L26.0251 33.3995L24.2958 32.3897L22.5666 31.3798L20.8374 30.37L13.8772 26.2867L12.148 25.2768L10.4188 24.267L8.68954 23.2571L3.45862 20.1836C2.68046 19.7446 2.68046 18.603 3.45862 18.1639L8.68954 15.0905L9.85677 14.388C10.2026 14.1684 10.6349 14.1684 11.024 14.388L12.1912 15.0905L19.1514 19.1738L20.8806 20.1836L22.6098 21.1935L24.3391 22.2033L31.2992 26.2867C32.0774 26.7257 33.0284 26.1988 33.0284 25.2768V13.0269C33.0284 12.1048 32.0774 11.5779 31.2992 12.017L24.3391 16.1003L23.1718 16.7589C22.826 16.9784 22.3937 16.9784 22.0046 16.7589L20.8374 16.1003L15.6065 13.0269C14.8283 12.5878 14.8283 11.4462 15.6065 11.0071L20.8374 7.93369L22.5666 6.92383L24.2958 5.91398L26.0251 4.90413L32.9852 0.825202L34.1524 0.166603C34.4983 -0.0529302 34.9738 -0.0529302 35.3197 0.166603L36.4869 0.869109L43.4471 4.95243L45.1763 5.96228L46.9055 6.97213L48.6347 7.98198L53.8657 11.0554C54.6438 11.4945 54.6438 12.6361 53.8657 13.0752L48.6347 16.1486L47.4675 16.8072C47.1217 17.0267 46.6894 17.0267 46.3003 16.8072L45.1331 16.1047L38.1729 12.0214C37.3948 11.5823 36.4437 12.1531 36.4437 13.0312V25.2812C36.4437 26.2032 37.3948 26.7301 38.1729 26.291L45.1331 22.2077L46.8623 21.1979L48.5915 20.188L50.3207 19.1782L57.2809 15.0949L58.4481 14.3923C58.794 14.1728 59.2263 14.1728 59.6154 14.3923L60.7826 15.0949L66.0135 18.1683V18.1244V18.12Z" fill="#F8F8F8"/>
</g>
<defs>
<clipPath id="clip0_959_4058">
<rect width="69.4718" height="79.3964" fill="white"/>
</clipPath>
</defs>
</svg>
