<svg width="70" height="78" viewBox="0 0 70 78" fill="none" xmlns="http://www.w3.org/2000/svg">
<g clip-path="url(#clip0_959_4067)">
<path d="M32.9885 39.8011V77.5923L26.0642 73.6057L24.3331 72.601L22.5694 71.6287L20.8383 70.6239L13.8813 66.6374L12.1502 65.6326L10.4191 64.6603L8.68806 63.6555L1.73108 59.669L8.68806 55.7149L10.4191 54.7101L12.1502 55.7149L19.1072 59.669L20.8383 60.6737L22.5694 61.6785L24.3331 62.6508V46.737L22.5694 47.7418L20.8383 48.7465L13.914 52.733L12.1502 53.7054L10.4191 54.7101L8.68806 53.7054V51.7283L10.4191 50.7236L12.1502 49.7188L19.1072 45.7647L20.8383 44.7599L22.5694 43.7552L20.8383 42.7505L13.8813 38.7963L10.4191 36.7868L8.68806 35.8145V51.7283L6.95698 52.733L0 56.6872V20.873L6.95698 24.8596L8.68806 25.8643L10.4191 26.8367L12.1502 27.8414L19.1072 31.828L20.8383 32.8327L22.5694 33.805L24.3331 34.8098L31.2574 38.7963L32.9885 39.8011Z" fill="#F8F8F8"/>
<path d="M69.4729 20.8721V56.6862L62.5159 52.7321L60.7848 51.7273V35.8135L59.0537 36.7859L55.5589 38.7953L48.6346 42.7819L46.8709 43.7542L45.1398 44.759V62.6498L46.8709 61.6775L48.6346 60.6728L50.3657 59.668L57.29 55.7139L59.0537 54.7091L60.7848 55.7139L67.7091 59.668L60.7848 63.6546L59.0537 64.6593L57.29 65.6316L55.5589 66.6364L48.6346 70.6229L46.9035 71.6277L45.1398 72.6L43.4087 73.6047L36.4844 77.5913V39.8001L38.2155 38.7953L45.1398 34.8088L46.8709 33.8041H46.9035L48.6346 32.8317L50.3657 31.827L57.29 27.8404L59.0537 26.8357L60.7848 25.8634L62.5159 24.8586L69.4729 20.8721Z" fill="#F8F8F8"/>
<path d="M60.7857 51.728V53.7051L59.0546 54.7098L57.2908 53.7051L55.5598 52.7327L48.6354 48.7462L46.9044 47.7414L45.1406 46.7367V44.7596L46.8717 43.7549L48.6354 44.7596L50.3665 45.7644L57.2908 49.7185L59.0546 50.7232L60.7857 51.728Z" fill="#F8F8F8"/>
<path d="M67.7075 17.8909L60.7831 21.8774L59.0521 22.8822L57.2883 23.8869L55.5572 24.8592L48.6329 28.8458L46.9018 29.8505L45.1381 30.8228L43.407 31.8276L36.4827 35.8141L34.719 36.7865L32.9879 35.8141L26.0636 31.8276L24.3325 30.8228L22.5687 29.8505L20.8377 28.8458L13.8807 24.8592L12.1496 23.8869L10.4185 22.8822L8.68745 21.8774L1.73047 17.8909L8.68745 13.9367L10.4185 12.932L12.1496 13.9367L19.1066 17.8909L20.8377 18.8956L22.5687 19.9003L24.3325 20.8727L31.2568 24.8592L32.9879 25.864L34.719 26.8363L36.4827 25.864L38.2138 24.8592L45.1381 20.8727L46.9018 19.9003L48.6329 18.8956L50.364 17.8909L48.6329 16.9185L46.9018 15.9138L45.1381 14.9091L38.2138 10.9549L36.4827 9.95017V0L43.407 3.98655L45.1381 4.95888L46.9018 5.96362L48.6329 6.96836L55.5572 10.9549L59.0521 12.932L60.7831 13.9367L67.7075 17.8909Z" fill="#F8F8F8"/>
<path d="M36.4831 9.95005V25.8638L34.7194 26.8362L32.9883 25.8638V9.95005L34.7194 8.94531L36.4831 9.95005Z" fill="#F8F8F8"/>
<path d="M32.9873 0V9.95017L31.2562 10.9549L24.3319 14.9091L22.5682 15.9138L20.8371 16.9185L19.106 17.8909L12.149 13.9367L10.418 12.932L12.149 11.9272L13.9128 10.9549L20.8371 6.96836L22.5682 5.96362L24.3319 4.95888L26.063 3.98655L32.9873 0Z" fill="#F8F8F8"/>
</g>
<defs>
<clipPath id="clip0_959_4067">
<rect width="69.4718" height="77.5919" fill="white"/>
</clipPath>
</defs>
</svg>
