<svg width="66" height="80" viewBox="0 0 66 80" fill="none" xmlns="http://www.w3.org/2000/svg">
<g clip-path="url(#clip0_959_4040)">
<path d="M27.3603 47.6464V66.7134L21.8717 63.5426V50.8172L16.3831 47.6464L10.8945 44.4756V38.0918L16.3831 41.3049L21.8717 44.4756L27.3603 47.6464Z" fill="#F8F8F8"/>
<path d="M60.3743 15.8539L54.8857 12.6831L49.3972 9.51234L43.9086 6.34156L38.42 3.17078L32.9314 0L27.4429 3.17078L21.9543 6.34156L16.4657 9.51234L10.9771 12.6831L5.48857 15.8539L0 19.0247V63.5425L5.48857 66.7132L10.9771 69.884L16.4657 73.0548L21.9543 76.2256L27.4429 79.3964L32.9314 76.2256L38.42 79.3964L43.9086 76.2256L49.3972 73.0548L54.8857 69.884L60.3743 66.7132L65.8629 63.5425V19.0247L60.3743 15.8539ZM60.3743 53.9878V60.3294L54.8857 63.5002L49.3972 66.671L43.9086 69.8417L38.42 73.0125L32.9314 69.8417L27.4429 73.0125L21.9543 69.8417L16.4657 66.671L10.9771 63.5002L5.48857 60.3294V22.1955L10.9771 19.0247L16.4657 15.8539L21.9543 12.6831L27.4429 9.51234L32.9314 6.34156L38.42 9.51234L43.9086 12.6831L49.3972 15.8539L54.8857 19.0247L60.3743 22.1955V53.9878Z" fill="#F8F8F8"/>
<path d="M54.8829 38.0918V44.4756L49.3521 47.6464L43.8636 50.8172V63.5426L38.375 66.7134V47.6464L43.8636 44.4756L49.3521 41.3049L54.8829 38.0918Z" fill="#F8F8F8"/>
<path d="M49.3575 22.195L43.8689 19.0242L38.3804 15.8534L32.8918 12.6826L27.4032 15.8534L21.9146 19.0242L16.4261 22.195L10.9375 25.3657V31.7073L16.4261 34.8781L21.9146 38.0489L27.4032 41.2196L32.8918 44.3904L38.3804 41.2196L43.8689 38.0489L54.8883 31.7073V25.3657L49.3997 22.195H49.3575ZM43.8689 31.7496L38.3804 34.9204L32.8918 38.0911L27.4032 34.9204L21.9146 31.7496L16.4261 28.5788L21.9146 25.408L27.4032 22.2372L32.8918 19.0665L38.3804 22.2372L43.8689 25.408L49.3575 28.5788L43.8689 31.7496Z" fill="#F8F8F8"/>
</g>
<defs>
<clipPath id="clip0_959_4040">
<rect width="65.8629" height="79.3964" fill="white"/>
</clipPath>
</defs>
</svg>
