<svg width="35" height="35" viewBox="0 0 35 35" fill="none" xmlns="http://www.w3.org/2000/svg">
<g clip-path="url(#clip0_871_282)">
<path d="M27.0211 1.42432V7.46412C27.0211 8.10008 27.5165 8.85368 28.0799 9.16615C28.1593 9.21026 28.6319 9.40877 28.6735 9.40877H35.3056V33.9356C35.3056 34.1268 34.7422 34.5275 34.5002 34.4503H18.4947C17.9351 34.3988 17.7347 34.1194 17.6893 33.5974V2.27717C17.6326 1.98676 18.007 1.42799 18.2905 1.42799H27.0287L27.0211 1.42432ZM20.9638 7.9898C20.3248 8.22875 20.3588 9.0963 21.0243 9.26908C22.3477 9.13674 24.0946 9.46024 25.3688 9.26908C26.0418 9.16615 26.0645 8.11479 25.3688 7.98245L20.9676 7.99348L20.9638 7.9898ZM21.0356 12.9047C20.2038 13.151 20.3928 14.1877 21.2285 14.2538C24.3139 14.2134 27.4257 14.3384 30.496 14.1914C31.169 13.8679 31.0669 12.9782 30.2805 12.89L21.0319 12.9084L21.0356 12.9047ZM21.1075 17.816C20.2492 18.0329 20.3248 19.0658 21.2323 19.1651H30.2162C31.2031 19.0548 31.1615 17.8932 30.2162 17.8013L21.1113 17.816H21.1075ZM21.1075 22.7272C20.2983 22.9074 20.2794 23.9771 21.1604 24.0763H30.288C31.2371 23.9661 31.1123 22.7677 30.2162 22.7088L21.1113 22.7235L21.1075 22.7272ZM20.9638 27.7083C20.2983 27.9399 20.3702 28.9104 21.0886 28.9913H30.3561C31.1123 28.9067 31.135 27.7782 30.3561 27.6936L20.9676 27.7083H20.9638Z" fill="#F8F8F8"/>
<path d="M16.4224 1.42432L16.3468 11.1733C12.3123 11.9673 9.82815 15.8346 10.8869 19.7386C11.5864 22.3229 13.7189 24.1315 16.3581 24.7307L16.4224 34.4466C15.6473 34.5238 14.9969 34.1599 14.8873 33.3805C14.8533 33.1453 14.8873 32.921 14.8495 32.6674C14.4373 30.2412 11.5864 28.9729 9.35929 30.1345C8.4367 30.6161 8.06615 31.6417 6.87888 30.7264C6.35331 30.3184 4.89758 28.9141 4.49678 28.4031C4.38334 28.2597 4.26613 28.0943 4.2321 27.9105C4.06573 27.0246 4.8522 26.6864 5.22275 25.9732C6.22853 24.0359 5.23788 21.4994 3.07508 20.8451C2.27726 20.6025 0.91228 20.8561 0.772378 19.7386C0.67785 18.9592 0.692975 16.9852 0.772378 16.1875C0.806408 15.8383 1.01059 15.5331 1.31308 15.3493C1.69497 15.1214 2.50035 15.1802 3.02214 15.0295C5.21519 14.4046 6.23987 11.846 5.22275 9.88667C4.76524 9.00441 3.62334 8.53755 4.53081 7.42002C4.94295 6.91272 6.43271 5.45331 6.95072 5.06365C7.136 4.92396 7.40446 4.79162 7.63888 4.77324C8.33839 4.7181 8.777 5.42023 9.36307 5.72534C11.6733 6.9311 14.4525 5.56727 14.8759 3.07856C14.91 2.86902 14.8684 2.64478 14.9024 2.42054C15.0158 1.68165 15.704 1.33242 16.4262 1.41329L16.4224 1.42432Z" fill="#F8F8F8"/>
<path d="M35.2278 8.11109H29.0154C28.8679 8.11109 28.418 7.72878 28.418 7.60012V1.49414L35.224 8.11109H35.2278Z" fill="#F8F8F8"/>
</g>
<defs>
<clipPath id="clip0_871_282">
<rect width="35" height="35" fill="white"/>
</clipPath>
</defs>
</svg>
