<svg width="79" height="79" viewBox="0 0 79 79" fill="none" xmlns="http://www.w3.org/2000/svg">
<path d="M26.2237 26.9896C25.5652 27.6864 26.6392 29.374 26.4154 30.1859L21.1479 26.6763C16.3023 26.2352 10.6896 27.1558 5.93348 26.6444C4.39286 26.4781 3.33168 25.1549 3.2294 23.6462C3.5746 18.5129 2.7947 12.8363 3.2294 7.77334C3.402 5.79802 4.60382 4.76881 6.54078 4.61539C13.822 4.04644 21.8319 5.05648 29.1898 4.61539C30.7432 4.69849 32.1368 5.7277 32.3414 7.31307L32.303 24.2152C32.009 25.5129 30.9862 26.4909 29.6437 26.638C28.7999 26.7339 26.7798 26.3823 26.2173 26.9832L26.2237 26.9896ZM12.9398 9.55049V21.102C13.4448 21.1723 13.8475 20.8782 14.2758 20.6673C16.4941 19.5485 19.0511 17.9632 21.2054 16.6655C21.557 16.4545 22.778 15.8153 22.9506 15.6363C23.0977 15.4828 23.1424 15.3997 23.1105 15.1824L13.6686 9.67834L12.9398 9.55688V9.55049Z" fill="#F8F8F8"/>
<path d="M53.5896 73.4575H18.7882C18.8393 71.7954 18.7178 70.1078 18.7882 68.4457C18.8713 66.3106 19.0566 64.1371 19.6448 62.0595C21.147 56.6961 25.0082 51.9847 29.9625 49.4724C34.0601 54.0879 41.239 54.9829 46.3787 51.5308C46.839 51.224 48.5714 49.6003 48.7504 49.5811C49.1595 49.5427 51.5312 51.077 51.8252 51.4286C51.9019 51.5244 52.1193 51.6331 51.9786 51.7418C48.9997 54.6377 43.4317 54.35 42.0317 58.7417C41.1112 61.6312 42.3769 64.8403 45.1641 66.0932C45.8225 66.3873 47.2034 66.5279 47.5741 66.7645C47.8682 66.9562 49.8563 69.8968 50.4316 70.5297C51.4033 71.5973 52.5284 72.4922 53.5896 73.4511V73.4575Z" fill="#F8F8F8"/>
<path d="M52.6681 30.1859C52.6681 28.9968 54.017 26.9192 52.1184 26.6507C49.9385 26.3503 47.6435 27.2772 46.8509 24.2152L46.8125 7.31307C47.0362 5.65099 48.3659 4.74963 49.9641 4.61539C57.322 5.05648 65.3319 4.04644 72.6131 4.61539C74.5437 4.76881 75.7519 5.78523 75.9245 7.77334C76.3656 12.8874 75.5857 18.6152 75.9245 23.7932C75.7519 25.2444 74.7227 26.4781 73.2268 26.6444C68.4707 27.1558 62.858 26.2352 58.0124 26.6763L52.6681 30.1859ZM60.058 20.9421V10.7012C60.058 10.5669 59.6681 10.3751 59.5146 10.3176C57.8653 9.70391 55.4745 9.63998 53.7421 9.08383V19.7084L60.058 20.9421ZM68.3748 9.08383L62.2123 10.471V20.9421L68.3748 19.7084V9.08383Z" fill="#F8F8F8"/>
<path d="M38.4724 30.3842C52.7215 29.176 53.8978 51.1666 39.6614 51.5949C26.2049 51.9976 24.8817 31.5413 38.4724 30.3842Z" fill="#F8F8F8"/>
<path d="M71.1417 61.906C67.5171 63.0119 63.8094 62.0658 60.14 61.7462C58.0688 61.6567 56.036 62.0722 53.9967 62.3535L50.9922 55.0851C52.699 53.8066 54.2205 52.7134 55.5885 51.045C57.9474 48.1747 59.6094 44.6651 63.5025 43.4377L71.1417 61.906Z" fill="#F8F8F8"/>
<path d="M48.9658 55.897L51.8808 63.044C51.8297 63.2613 49.0809 64.3736 48.6653 64.4503C43.9604 65.3261 41.9211 59.3235 46.0891 57.0988C46.9649 56.6322 48.1028 56.434 48.9594 55.8906L48.9658 55.897Z" fill="#F8F8F8"/>
<path d="M65.7146 40.216C66.3155 40.1073 66.763 40.542 66.9676 41.0598C69.2497 47.7401 73.0981 54.4524 75.2652 61.0943C75.4762 61.7336 75.4634 62.3792 74.6899 62.6158C73.9164 62.8523 73.552 61.9637 73.2771 61.3948C70.2086 55.098 68.1055 47.9383 65.0562 41.584C64.8324 41.0471 65.1201 40.3311 65.7146 40.216Z" fill="#F8F8F8"/>
<path d="M59.907 70.8366C57.8167 70.2293 55.7582 68.5991 54.2879 66.9882C54.077 66.7581 52.7217 65.1343 52.8304 64.9873C54.9464 64.2969 57.2094 63.7088 59.4596 63.9709C59.8943 64.2841 59.9454 69.9608 59.907 70.8366Z" fill="#F8F8F8"/>
<path d="M60.3545 74.0585C60.0285 74.5252 57.8486 73.5088 57.3819 73.285C55.5536 72.3901 53.508 70.7919 52.1272 69.3024C51.8076 68.9572 49.73 66.4513 49.8962 66.2212C50.1966 66.234 50.5354 65.8248 50.8167 65.9719C50.9957 66.0678 52.255 67.8577 52.5875 68.2221C54.6715 70.5106 57.1006 72.2175 60.054 73.2275C60.3481 73.4065 60.4312 73.7261 60.3481 74.0585H60.3545Z" fill="#F8F8F8"/>
<path d="M74.2257 52.9758L71.918 47.4333C74.0339 48.3795 75.0887 50.7703 74.2257 52.9758Z" fill="#F8F8F8"/>
</svg>
