<svg width="42" height="98" viewBox="0 0 42 98" fill="none" xmlns="http://www.w3.org/2000/svg">
<path d="M28.4919 6.25481C27.7757 9.86138 24.5974 12.6167 20.7478 12.6167C16.8982 12.6167 13.7424 9.86138 13.0261 6.25481C5.37161 9.30135 0 16.7833 0 25.5197C0 31.2768 2.32771 36.4738 6.06544 40.2372L20.7478 54.9323H20.7702V40.394H20.7478L13.0261 32.6433C13.0261 32.6433 12.9814 32.576 12.9366 32.5536C12.7799 32.3744 12.6233 32.1728 12.4666 31.9936C12.4442 31.9264 12.3994 31.8816 12.3547 31.8368C12.1756 31.6128 12.0189 31.3664 11.8847 31.1424C11.5713 30.6495 11.3027 30.1567 11.1013 29.5967C10.9894 29.3503 10.8999 29.1263 10.8327 28.8799C10.7656 28.7231 10.7208 28.5663 10.6761 28.4095C10.497 27.827 10.3851 27.2446 10.3179 26.595C10.2956 26.2365 10.2732 25.8781 10.2732 25.5197C10.2732 19.7179 14.9733 15.036 20.7478 15.036C26.5223 15.036 31.2448 19.7403 31.2448 25.5197C31.2448 28.4319 30.081 31.0528 28.1785 32.9569L22.2026 38.9155L29.4543 46.1735L35.4302 40.1924C39.1679 36.4514 41.4956 31.2544 41.4956 25.4973C41.4956 16.7609 36.1016 9.27896 28.4695 6.23242L28.4919 6.25481Z" fill="#FFD25F"/>
<path d="M20.7695 11.6037C23.971 11.6037 26.5664 9.00615 26.5664 5.80186C26.5664 2.59758 23.971 0 20.7695 0C17.568 0 14.9727 2.59758 14.9727 5.80186C14.9727 9.00615 17.568 11.6037 20.7695 11.6037Z" fill="#58519E"/>
<path d="M35.4508 56.158L28.0424 48.7433H28.02L20.7908 41.4854V56.046L23.7899 59.0478L28.1991 63.4384C30.1015 65.3425 31.2654 67.9634 31.2654 70.8531C31.2654 76.655 26.5652 81.3592 20.7684 81.3592C14.9715 81.3592 10.2938 76.6326 10.2938 70.8531C10.2938 67.9634 11.4576 65.3201 13.36 63.4384L19.3359 57.4573L12.0843 50.1994L6.10841 56.1804C2.37068 59.9438 0.0429688 65.1409 0.0429688 70.8755C0.0429688 79.6343 5.43696 87.0939 13.0691 90.1628C13.7629 86.5339 16.9635 83.7785 20.7908 83.7785C24.618 83.7785 27.7962 86.5339 28.5348 90.1628C36.1893 87.0939 41.5609 79.6343 41.5609 70.8755C41.5609 65.1409 39.2332 59.9438 35.4955 56.1804L35.4508 56.158Z" fill="#FFD25F"/>
<path d="M20.7695 97.4211C23.971 97.4211 26.5664 94.8235 26.5664 91.6193C26.5664 88.415 23.971 85.8174 20.7695 85.8174C17.568 85.8174 14.9727 88.415 14.9727 91.6193C14.9727 94.8235 17.568 97.4211 20.7695 97.4211Z" fill="#58519E"/>
</svg>
