<svg width="82" height="84" viewBox="0 0 82 84" fill="none" xmlns="http://www.w3.org/2000/svg">
<path d="M42.1438 58.8418C42.0101 58.8992 41.838 58.8992 41.7043 58.8992C41.5896 58.8992 41.494 58.8992 41.3984 58.88C41.6469 58.88 41.8954 58.88 42.1247 58.8609L42.1438 58.8418Z" fill="#BE1622"/>
<path d="M61.602 7.13538C61.3917 6.92495 61.1432 6.69539 60.8757 6.54235C55.8489 2.4486 49.4269 0 42.4315 0C29.5493 0 18.6357 8.30229 14.6602 19.8375C17.7756 21.8844 19.8398 25.4233 19.8398 29.4406C19.8398 33.4578 17.7756 36.9777 14.6602 39.0437C18.6357 50.5789 29.5684 58.8812 42.4315 58.8812H42.8138C43.0622 58.8812 43.3107 58.8812 43.5401 58.862C46.0439 58.6707 47.9934 56.5665 47.9934 54.0414C47.9934 51.3441 45.7954 49.1442 43.1004 49.1442C42.8902 49.1633 42.6417 49.1633 42.4124 49.1633C31.5561 49.1633 22.745 40.3445 22.745 29.4406C22.745 18.5367 31.5561 9.75613 42.4124 9.75613C47.0378 9.75613 51.2809 11.363 54.6639 14.0221C54.855 14.156 55.0079 14.3281 55.1991 14.462C55.2564 14.5386 55.3137 14.5768 55.3902 14.6342C56.1547 15.1698 57.1104 15.4759 58.1043 15.4759C60.8183 15.4759 62.9972 13.276 62.9972 10.5787C62.9972 9.23963 62.4621 8.05359 61.5829 7.1545L61.602 7.13538Z" fill="#58519E"/>
<path d="M8.35242 37.7994C12.9653 37.7994 16.7048 34.0567 16.7048 29.4398C16.7048 24.8228 12.9653 21.0801 8.35242 21.0801C3.7395 21.0801 0 24.8228 0 29.4398C0 34.0567 3.7395 37.7994 8.35242 37.7994Z" fill="#58519E"/>
<path d="M20.0437 76.0593C20.2539 76.2697 20.5024 76.4992 20.77 76.6523C25.7967 80.746 32.2187 83.1946 39.2141 83.1946C52.0964 83.1946 63.01 74.8924 66.9855 63.3572C63.8701 61.3103 61.8059 57.7713 61.8059 53.7541C61.8059 49.7368 63.8701 46.217 66.9855 44.151C63.01 32.6158 52.0773 24.3135 39.2141 24.3135H38.8319C38.5834 24.3135 38.3349 24.3135 38.1056 24.3326C35.6018 24.5239 33.6522 26.6282 33.6522 29.1533C33.6522 31.8506 35.8502 34.0505 38.5452 34.0505C38.7554 34.0314 39.0039 34.0314 39.2333 34.0314C50.0895 34.0314 58.9007 42.8501 58.9007 53.7541C58.9007 64.658 50.0895 73.4385 39.2333 73.4385C34.6079 73.4385 30.3648 71.8316 26.9818 69.1726C26.7906 69.0387 26.6377 68.8665 26.4466 68.7326C26.3893 68.6561 26.3319 68.6178 26.2554 68.5604C25.4909 68.0248 24.5353 67.7187 23.5414 67.7187C20.8273 67.7187 18.6484 69.9186 18.6484 72.6159C18.6484 73.955 19.1836 75.141 20.0628 76.0401L20.0437 76.0593Z" fill="#FFD25F"/>
<path d="M73.2938 62.1334C77.9067 62.1334 81.6463 58.3907 81.6463 53.7737C81.6463 49.1568 77.9067 45.4141 73.2938 45.4141C68.6809 45.4141 64.9414 49.1568 64.9414 53.7737C64.9414 58.3907 68.6809 62.1334 73.2938 62.1334Z" fill="#FFD25F"/>
</svg>
