<svg width="63" height="101" viewBox="0 0 63 101" fill="none" xmlns="http://www.w3.org/2000/svg">
<path d="M39.6561 27.8108C39.6561 19.9141 35.0326 13.0995 28.3389 9.89941C26.9818 13.2837 23.6925 15.701 19.8281 15.701C15.9637 15.701 12.6513 13.3067 11.3172 9.89941C4.62347 13.0995 0 19.8911 0 27.8108C0 30.7806 0.667076 33.5894 1.8402 36.1218H1.81719C1.9552 36.3981 2.09322 36.6744 2.23123 36.9506C2.30024 37.0888 2.36924 37.2269 2.43825 37.388C7.93581 47.9783 19.8281 56.6347 19.8281 56.6347C19.8281 56.6347 31.7203 47.9783 37.2178 37.388C37.2868 37.2499 37.3559 37.1118 37.4249 36.9506C37.5629 36.6744 37.7239 36.3981 37.8389 36.1218H37.8159C38.989 33.5894 39.6561 30.7806 39.6561 27.8108ZM19.8281 36.4211C15.0666 36.4211 11.2252 32.5764 11.2252 27.8108C11.2252 23.0451 15.0666 19.2004 19.8281 19.2004C24.5895 19.2004 28.4309 23.0451 28.4309 27.8108C28.4309 32.5764 24.5895 36.4211 19.8281 36.4211Z" fill="#FFD25F"/>
<path d="M19.8343 12.9846C23.4168 12.9846 26.321 10.0779 26.321 6.49229C26.321 2.9067 23.4168 0 19.8343 0C16.2518 0 13.3477 2.9067 13.3477 6.49229C13.3477 10.0779 16.2518 12.9846 19.8343 12.9846Z" fill="#FFD25F"/>
<path d="M22.4492 72.3376C22.4492 80.2342 27.0727 87.0488 33.7664 90.2489C35.1235 86.8647 38.4129 84.4473 42.2773 84.4473C46.1417 84.4473 49.454 86.8416 50.7881 90.2489C57.4818 87.0488 62.1053 80.2573 62.1053 72.3376C62.1053 69.3677 61.4382 66.559 60.2651 64.0265H60.2881C60.1501 63.7503 60.0121 63.474 59.8741 63.1977C59.8051 63.0596 59.7361 62.9215 59.6671 62.7603C54.1695 52.1701 42.2773 43.5137 42.2773 43.5137C42.2773 43.5137 30.385 52.1701 24.8875 62.7603C24.8185 62.8985 24.7495 63.0366 24.6805 63.1977C24.5424 63.474 24.3814 63.7503 24.2664 64.0265H24.2894C23.1163 66.559 22.4492 69.3677 22.4492 72.3376ZM42.2773 63.7042C47.0387 63.7042 50.8801 67.549 50.8801 72.3146C50.8801 77.0802 47.0387 80.9249 42.2773 80.9249C37.5158 80.9249 33.6744 77.0802 33.6744 72.3146C33.6744 67.549 37.5158 63.7042 42.2773 63.7042Z" fill="#58519E"/>
<path d="M42.2835 100.125C45.866 100.125 48.7702 97.2185 48.7702 93.6329C48.7702 90.0473 45.866 87.1406 42.2835 87.1406C38.7011 87.1406 35.7969 90.0473 35.7969 93.6329C35.7969 97.2185 38.7011 100.125 42.2835 100.125Z" fill="#58519E"/>
</svg>
