<svg width="180" height="180" viewBox="0 0 180 180" fill="none" xmlns="http://www.w3.org/2000/svg">
<path d="M90 1.96701e-06C139.706 3.05337e-06 180 40.2945 180 90C180 139.706 139.706 180 90 180C40.2942 180 -3.05337e-06 139.706 -1.96701e-06 90C-8.80664e-07 40.2945 40.2942 8.80659e-07 90 1.96701e-06ZM67.235 94.6462C56.9271 94.6462 47.8288 99.9415 42.5309 107.943C49.8442 110.073 55.2007 116.751 55.2007 124.81L55.1844 125.5C54.8632 133.168 49.6155 139.501 42.5309 141.62C47.8288 149.622 56.9274 154.917 67.235 154.917L67.235 94.6462ZM104.725 23.6061C87.6794 23.6061 73.8006 37.4225 73.8579 54.4624L73.8579 154.917C90.9036 154.917 104.725 141.101 104.725 124.061L104.725 23.6061ZM37.5793 112.259C30.6778 112.259 25.0826 117.854 25.0826 124.753C25.083 131.652 30.6781 137.245 37.5793 137.245C44.4802 137.244 50.0729 131.652 50.0732 124.753C50.0732 117.855 44.4805 112.26 37.5793 112.259ZM111.288 83.8803C121.596 83.8803 130.697 78.5846 135.995 70.5829C128.682 68.4528 123.325 61.7729 123.325 53.7133C123.326 45.7119 128.682 39.0339 135.995 36.8465C130.697 28.9021 121.654 23.6061 111.288 23.6061L111.288 83.8803ZM140.947 41.2222C134.046 41.2222 128.451 46.8146 128.45 53.7133C128.45 60.6126 134.045 66.2073 140.947 66.2073C147.848 66.207 153.444 60.6123 153.444 53.7133C153.443 46.8149 147.848 41.2224 140.947 41.2222Z" fill="#F8F8F8"/>
</svg>
